<svg width="16" height="17" viewBox="0 0 16 17" fill="none" xmlns="http://www.w3.org/2000/svg">
<path fill-rule="evenodd" clip-rule="evenodd" d="M4.25637 4.28571C4.32303 3.92358 4.41384 3.56324 4.53754 3.21961C4.77467 2.5609 5.14077 1.93854 5.71094 1.48099C6.28648 1.01913 7.03925 0.75 8.0009 0.75C8.96255 0.75 9.71532 1.01913 10.2909 1.48099C10.861 1.93854 11.2271 2.56089 11.4643 3.21961C11.588 3.56324 11.6788 3.92358 11.7455 4.28571H13.5931C13.9893 4.28571 14.3236 4.58078 14.3727 4.97397L15.7477 15.974C15.8063 16.4429 15.4407 16.8571 14.9681 16.8571H1.03388C0.561271 16.8571 0.195611 16.4429 0.25423 15.974L1.62923 4.97397C1.67838 4.58078 2.01262 4.28571 2.40888 4.28571H4.25637ZM5.0563 4.28571C5.11242 4.01148 5.18442 3.74239 5.27681 3.48574C5.48163 2.91678 5.77847 2.43422 6.2027 2.09379C6.62157 1.75765 7.19469 1.53571 8.0009 1.53571C8.80711 1.53571 9.38023 1.75765 9.79911 2.09379C10.2233 2.43423 10.5202 2.91679 10.725 3.48575C10.8174 3.7424 10.8894 4.01148 10.9455 4.28571H5.0563ZM4.14603 5.07143C4.07234 5.7976 4.07235 6.48627 4.07236 7.01161L4.07236 7.03571C4.07236 7.25268 4.24824 7.42857 4.46521 7.42857C4.68218 7.42858 4.85807 7.25269 4.85808 7.03572C4.85809 6.47207 4.85934 5.77735 4.9359 5.07143H11.0659C11.1425 5.77735 11.1438 6.47207 11.1438 7.03571C11.1438 7.25268 11.3196 7.42857 11.5366 7.42857C11.7536 7.42857 11.9295 7.25268 11.9295 7.03571V7.01185C11.9295 6.48648 11.9295 5.79771 11.8558 5.07143H13.5931L14.9681 16.0714H1.03388L2.40888 5.07143H4.14603Z" fill="white"/>
</svg>
