<svg width="100" height="22" viewBox="0 0 100 22" fill="none" xmlns="http://www.w3.org/2000/svg">
<path fill-rule="evenodd" clip-rule="evenodd" d="M89.9101 0.591036C87.531 0.813146 85.2146 2.0158 83.9207 3.70068C82.9625 4.94832 82.5064 6.34451 82.5064 8.02959C82.5064 9.23468 82.6871 10.1025 83.1391 11.0679C83.8256 12.5342 84.936 13.6344 86.5747 14.4719C88.0576 15.2297 88.789 15.3954 90.8911 15.4496C92.8964 15.5013 93.8798 15.3525 95.3081 14.7815C97.5134 13.8998 99.2595 11.9756 99.8258 9.80282C100.058 8.91165 100.058 7.14642 99.8257 6.25808C99.4963 4.99848 98.8675 3.91448 97.9411 3.00851C96.463 1.56317 94.7508 0.810917 92.4191 0.582525C91.2804 0.470963 91.1925 0.471267 89.9101 0.591036ZM64.7473 0.640079C64.6124 0.664195 64.171 0.732084 63.7663 0.790753C59.5824 1.39811 56.196 3.64383 54.6577 6.83109C53.0388 10.1851 53.4403 13.9846 55.7273 16.9532C57.3335 19.0381 60.1915 20.6313 63.3739 21.2156C64.7982 21.4773 68.3133 21.4776 69.6033 21.2164C71.868 20.7577 73.3477 20.1477 74.9662 19.0051C76.0629 18.231 77.694 16.4752 77.6962 16.0666C77.6964 16.0285 77.2882 15.784 76.7891 15.5232C76.2901 15.2625 75.5193 14.8463 75.0764 14.5986L74.271 14.1479L74.0954 14.3746C72.6828 16.1974 71.1101 17.1195 68.4904 17.6608C67.8427 17.7946 67.3107 17.8199 65.9398 17.7816C63.863 17.7236 63.0481 17.5384 61.5174 16.7762C60.6409 16.3397 60.3815 16.149 59.7025 15.4414C58.5045 14.1932 58.0182 13.0861 57.9155 11.3734C57.8025 9.48871 58.3709 7.95775 59.6859 6.60472C61.269 4.97598 63.3557 4.23021 66.3306 4.22991C69.2656 4.22961 71.633 5.07133 73.2304 6.68305C73.6606 7.11714 74.0601 7.47229 74.1182 7.47229C74.2166 7.47229 76.7883 6.09961 77.2813 5.78387C77.5654 5.60199 77.4997 5.46732 76.6875 4.56693C74.9615 2.65376 72.5862 1.41432 69.5052 0.819226C68.7558 0.67453 65.2847 0.543818 64.7473 0.640079ZM35.3187 0.833817C32.3953 1.39993 30.604 2.91184 30.2147 5.14176C29.9558 6.62438 30.4882 8.0607 31.8763 9.62499C32.221 10.0134 32.3489 10.2224 32.2609 10.2532C28.966 11.4056 27.2067 12.5858 26.4661 14.1404C26.1582 14.7867 26.145 14.8638 26.1493 15.982C26.1528 16.9094 26.1961 17.267 26.3597 17.7234C26.9788 19.4496 28.4821 20.6625 30.7555 21.2702C31.5318 21.4777 31.8575 21.5053 33.4532 21.4993C35.0229 21.4933 35.434 21.4562 36.4958 21.2249C38.0943 20.8765 39.7547 20.3736 41.3994 19.7396C42.1278 19.4588 42.776 19.2284 42.8399 19.2277C42.9038 19.2269 43.3231 19.5382 43.7719 19.9195C44.2206 20.3007 44.6841 20.6654 44.8019 20.7301C45.0617 20.8724 49.2069 20.8959 49.291 20.7554C49.3212 20.7049 48.6175 20.014 47.7272 19.2204C46.8367 18.4268 46.1082 17.7617 46.1082 17.7424C46.1082 17.7232 46.8605 17.3185 47.7799 16.843C48.6994 16.3675 49.476 15.9133 49.5056 15.8335C49.5639 15.6768 48.0936 12.9525 47.9094 12.876C47.848 12.8506 47.2962 13.0897 46.6832 13.4075C46.0702 13.7254 45.0302 14.2487 44.3719 14.5703L43.1753 15.155L41.012 13.2228C39.8222 12.1602 38.8488 11.256 38.8488 11.2134C38.8488 11.1709 38.9922 11.1051 39.1676 11.0672C39.343 11.0292 40.0382 10.8159 40.7127 10.5931C44.4372 9.36296 45.9367 7.72612 45.5209 5.34441C45.15 3.22038 43.5026 1.66045 40.9089 0.977297C39.829 0.692972 36.4892 0.607147 35.3187 0.833817ZM0.0250156 11.0441L0.0500312 20.7969H1.96299H3.87595L3.90175 17.331L3.92755 13.8649L10.7197 13.8295C16.7771 13.7978 17.5803 13.775 18.1444 13.6188C19.2816 13.3039 19.9944 12.8735 20.8473 11.9866C22.019 10.7685 22.4179 9.80242 22.523 7.92826C22.7057 4.66795 21.1053 2.23589 18.2873 1.49143C17.5605 1.29952 17.1722 1.29131 8.76479 1.29131H0L0.0250156 11.0441ZM93.4404 3.93515C95.371 4.60432 96.4338 6.05938 96.4338 8.03344C96.4338 10.0141 95.4201 11.3864 93.431 12.0983C92.7344 12.3477 92.5195 12.3757 91.2835 12.3797C90.2236 12.383 89.7767 12.3418 89.3257 12.1991C88.4534 11.9231 87.8265 11.5619 87.2611 11.0095C86.3469 10.1164 85.9689 9.061 86.0618 7.66086C86.1906 5.71922 87.5252 4.26689 89.6263 3.78174C90.6408 3.54747 92.5426 3.62397 93.4404 3.93515ZM40.0669 4.3738C41.1056 4.76036 41.6937 5.38292 41.6937 6.09606C41.6937 7.24207 40.5799 7.99919 37.7863 8.75216L36.4068 9.12403L35.4175 8.23924C34.8735 7.75266 34.362 7.24988 34.2807 7.1219C33.7196 6.23731 34.001 5.26923 34.9941 4.66815C35.7261 4.22505 36.2815 4.13253 38.0149 4.16496C39.2146 4.18735 39.6982 4.2366 40.0669 4.3738ZM17.0715 4.99868C17.5743 5.23903 18.0792 5.72257 18.3168 6.1911C18.4128 6.38028 18.4963 6.84852 18.5224 7.34411C18.5621 8.09687 18.5404 8.23346 18.3009 8.73909C18.1291 9.10184 17.8773 9.42426 17.5871 9.65316C16.7479 10.315 16.8114 10.3095 10.0875 10.3095H4.0231V7.5188V4.72804L10.3261 4.75762C16.4798 4.7864 16.6395 4.79208 17.0715 4.99868ZM37.2769 14.3626C38.6219 15.505 39.7097 16.4854 39.6944 16.5411C39.6555 16.6829 37.3398 17.4751 36.102 17.7702C32.8345 18.5491 30.4212 17.915 30.0162 16.1712C29.7776 15.144 30.3428 14.0601 31.4741 13.3753C32.0719 13.0134 34.2285 12.236 34.5593 12.2631C34.7514 12.2788 35.552 12.8973 37.2769 14.3626ZM86.8199 19.125V20.8475H91.2344H95.649V19.125V17.4024H91.2344H86.8199V19.125Z" fill="white"/>
</svg>
