<svg width="16" height="16" viewBox="0 0 16 16" fill="none" xmlns="http://www.w3.org/2000/svg">
<path fill-rule="evenodd" clip-rule="evenodd" d="M10.8574 5.85693C10.8574 7.43489 9.57824 8.71408 8.00028 8.71408C6.42232 8.71408 5.14314 7.43489 5.14314 5.85693C5.14314 4.27898 6.42232 2.99979 8.00028 2.99979C9.57824 2.99979 10.8574 4.27898 10.8574 5.85693ZM10.1431 5.85693C10.1431 7.0404 9.18375 7.99979 8.00028 7.99979C6.81681 7.99979 5.85742 7.0404 5.85742 5.85693C5.85742 4.67347 6.81681 3.71408 8.00028 3.71408C9.18375 3.71408 10.1431 4.67347 10.1431 5.85693Z" fill="white"/>
<path fill-rule="evenodd" clip-rule="evenodd" d="M15.1431 7.99979C15.1431 9.6078 14.6118 11.0917 13.7151 12.2855C13.6494 12.373 13.5817 12.459 13.5121 12.5433C12.2019 14.1308 10.2193 15.1426 8.00028 15.1426C5.6634 15.1426 3.58863 14.0204 2.28548 12.2855C1.38878 11.0917 0.857422 9.60781 0.857422 7.99979C0.857422 4.0549 4.05539 0.856934 8.00028 0.856934C11.9452 0.856934 15.1431 4.0549 15.1431 7.99979ZM8.00028 14.4284L8.01174 14.4284C9.91108 14.425 11.6172 13.598 12.792 12.2855C11.614 10.9693 9.90377 10.1426 8.00028 10.1426C6.09679 10.1426 4.38655 10.9693 3.2086 12.2855C4.38336 13.598 6.08948 14.425 7.98881 14.4284L8.00028 14.4284ZM8.00028 9.42836C10.0725 9.42836 11.9386 10.3108 13.2434 11.7204C13.9899 10.6703 14.4289 9.3863 14.4289 7.99979C14.4289 4.44939 11.5507 1.57122 8.00028 1.57122C4.44988 1.57122 1.57171 4.44939 1.57171 7.99979C1.57171 9.3863 2.01065 10.6703 2.75716 11.7204C4.06191 10.3108 5.92805 9.42836 8.00028 9.42836Z" fill="white"/>
</svg>
