<svg width="16" height="16" viewBox="0 0 16 16" fill="none" xmlns="http://www.w3.org/2000/svg">
<path fill-rule="evenodd" clip-rule="evenodd" d="M6.92885 12.2855C3.97018 12.2855 1.57171 9.88703 1.57171 6.92836C1.57171 3.96969 3.97018 1.57122 6.92885 1.57122C9.88752 1.57122 12.286 3.96969 12.286 6.92836C12.286 9.88703 9.88752 12.2855 6.92885 12.2855ZM0.857422 6.92836C0.857422 3.5752 3.57569 0.856934 6.92885 0.856934C10.282 0.856934 13.0003 3.5752 13.0003 6.92836C13.0003 8.47643 12.4209 9.88917 11.4671 10.9616L15.0385 14.533C15.178 14.6724 15.178 14.8986 15.0385 15.038C14.8991 15.1775 14.6729 15.1775 14.5335 15.038L10.9621 11.4667C9.88966 12.4204 8.47692 12.9998 6.92885 12.9998C3.57569 12.9998 0.857422 10.2815 0.857422 6.92836Z" fill="white"/>
</svg>
