<svg width="390" height="82" viewBox="0 0 390 82" fill="none" xmlns="http://www.w3.org/2000/svg">
<path fill-rule="evenodd" clip-rule="evenodd" d="M350.649 0.40509C341.371 1.27132 332.337 5.96168 327.291 12.5327C323.554 17.3985 321.775 22.8437 321.775 29.4155C321.775 34.1153 322.48 37.5 324.242 41.2648C326.92 46.9835 331.25 51.2743 337.641 54.5404C343.424 57.496 346.277 58.1421 354.475 58.3535C362.296 58.555 366.131 57.9749 371.701 55.7481C380.302 52.3093 387.112 44.8048 389.321 36.3311C390.227 32.8555 390.227 25.9711 389.32 22.5066C388.035 17.5941 385.583 13.3665 381.97 9.83323C376.206 4.19642 369.528 1.26263 360.435 0.371895C355.994 -0.0631948 355.651 -0.0620093 350.649 0.40509ZM252.515 0.596356C251.988 0.690408 250.267 0.955177 248.689 1.18398C232.371 3.55268 219.164 12.311 213.165 24.7413C206.851 37.8221 208.417 52.64 217.336 64.2175C223.6 72.3487 234.747 78.5621 247.158 80.8411C252.713 81.8614 266.422 81.8626 271.453 80.8438C280.285 79.0553 286.056 76.6759 292.368 72.2199C296.645 69.2011 303.007 62.3535 303.015 60.7597C303.016 60.6111 301.424 59.6576 299.478 58.6404C297.531 57.6236 294.525 56.0006 292.798 55.0344L289.657 53.2771L288.972 54.1611C283.463 61.2699 277.329 64.866 267.113 66.9771C264.586 67.4991 262.512 67.5975 257.165 67.4481C249.066 67.2221 245.888 66.4997 239.918 63.5272C236.5 61.8247 235.488 61.081 232.84 58.3215C228.168 53.4537 226.271 49.136 225.87 42.4563C225.43 35.106 227.646 29.1353 232.775 23.8585C238.949 17.5064 247.087 14.5979 258.69 14.5967C270.136 14.5955 279.369 17.8783 285.598 24.1639C287.276 25.8569 288.834 27.242 289.061 27.242C289.445 27.242 299.474 21.8885 301.397 20.6571C302.505 19.9478 302.249 19.4226 299.081 15.9111C292.35 8.44972 283.086 3.61591 271.07 1.29503C268.148 0.730716 254.61 0.220938 252.515 0.596356ZM137.743 1.35194C126.342 3.55979 119.356 9.45623 117.837 18.1529C116.828 23.9351 118.904 29.5368 124.318 35.6375C125.662 37.1522 126.161 37.9675 125.818 38.0876C112.968 42.582 106.106 47.1846 103.218 53.2474C102.017 55.7683 101.965 56.069 101.982 60.4298C101.996 64.0468 102.165 65.4414 102.803 67.2213C105.217 73.9535 111.08 78.6838 119.946 81.0537C122.974 81.863 124.244 81.9709 130.468 81.9472C136.589 81.9239 138.193 81.7792 142.334 80.877C148.568 79.5184 155.043 77.5571 161.458 75.0845C164.298 73.9895 166.827 73.0908 167.076 73.0881C167.325 73.0849 168.96 74.2989 170.71 75.786C172.46 77.2726 174.268 78.6953 174.727 78.9474C175.741 79.5026 191.907 79.5939 192.235 79.0462C192.353 78.849 189.608 76.1547 186.136 73.0596C182.663 69.9646 179.822 67.3707 179.822 67.2956C179.822 67.2205 182.756 65.6422 186.342 63.7876C189.928 61.9334 192.956 60.1618 193.072 59.8508C193.299 59.2395 187.565 48.6147 186.847 48.3164C186.607 48.2172 184.455 49.1498 182.064 50.3895C179.674 51.6292 175.618 53.6699 173.051 54.9242L168.384 57.2047L159.947 49.6691C155.307 45.5249 151.51 41.9983 151.51 41.8323C151.51 41.6667 152.07 41.4099 152.754 41.2621C153.438 41.1139 156.149 40.282 158.779 39.413C173.305 34.6156 179.153 28.2319 177.531 18.9433C176.085 10.6595 169.66 4.57579 159.545 1.91151C155.333 0.802639 142.308 0.467923 137.743 1.35194ZM0.0975609 41.172L0.195122 79.2078H7.65566H15.1162L15.2168 65.6908L15.3175 52.1733L41.807 52.035C65.4309 51.9113 68.5632 51.8224 70.7631 51.2134C75.1981 49.9852 77.9784 48.3065 81.3046 44.8479C85.8743 40.0971 87.4299 36.3295 87.8397 29.0203C88.552 16.305 82.3108 6.82 71.3205 3.91664C68.4859 3.16817 66.9716 3.13616 34.1827 3.13616H0L0.0975609 41.172ZM364.418 13.4471C371.947 16.0569 376.092 21.7316 376.092 29.4305C376.092 37.155 372.138 42.5069 364.381 45.2834C361.664 46.2559 360.826 46.3654 356.006 46.3808C351.872 46.3939 350.129 46.233 348.37 45.6766C344.968 44.6001 342.523 43.1913 340.318 41.0372C336.753 37.5541 335.279 33.438 335.641 27.9774C336.143 20.405 341.348 14.7409 349.542 12.8488C353.499 11.9352 360.916 12.2335 364.418 13.4471ZM156.261 15.1579C160.312 16.6655 162.605 19.0934 162.605 21.8747C162.605 26.3441 158.261 29.2969 147.366 32.2335L141.986 33.6838L138.128 30.2331C136.006 28.3354 134.012 26.3746 133.695 25.8755C131.506 22.4256 132.604 18.65 136.477 16.3058C139.332 14.5777 141.498 14.2169 148.258 14.3434C152.937 14.4307 154.823 14.6228 156.261 15.1579ZM66.579 17.5949C68.5398 18.5323 70.509 20.4181 71.4357 22.2454C71.8098 22.9832 72.1354 24.8093 72.2372 26.7421C72.3921 29.6779 72.3076 30.2105 71.3737 32.1825C70.7034 33.5972 69.7216 34.8547 68.5896 35.7474C65.3169 38.3287 65.5644 38.3069 39.3412 38.3069H15.6901V27.4234V16.5394L40.2716 16.6548C64.2712 16.767 64.8941 16.7891 66.579 17.5949ZM145.38 54.114C150.625 58.5697 154.868 62.393 154.808 62.6103C154.656 63.1632 145.625 66.2531 140.798 67.4039C128.055 70.4416 118.643 67.9686 117.063 61.1676C116.133 57.1616 118.337 52.9344 122.749 50.2638C125.08 48.8523 133.491 45.8204 134.781 45.926C135.531 45.9872 138.653 48.3994 145.38 54.114ZM338.598 72.6874V79.4054H355.814H373.031V72.6874V65.9694H355.814H338.598V72.6874Z" fill="white"/>
</svg>
